<?xml version="1.0" standalone="no"?>
<!DOCTYPE svg PUBLIC "-//W3C//DTD SVG 20010904//EN"
 "http://www.w3.org/TR/2001/REC-SVG-20010904/DTD/svg10.dtd">
<svg version="1.0" xmlns="http://www.w3.org/2000/svg"
 width="500.000000pt" height="500.000000pt" viewBox="0 0 500.000000 500.000000"
 preserveAspectRatio="xMidYMid meet">
<metadata>
Created by potrace 1.11, written by Peter Selinger 2001-2013
</metadata>
<g transform="translate(0.000000,500.000000) scale(0.100000,-0.100000)"
fill="#000000" stroke="none">
<path d="M1320 2395 l0 -505 510 0 510 0 0 505 0 505 -510 0 -510 0 0 -505z
m648 319 c33 -13 38 -13 48 1 16 21 71 20 78 -2 24 -84 56 -205 56 -216 0 -7
-17 -19 -37 -25 -33 -11 -40 -10 -51 5 -7 10 -29 39 -48 66 -19 26 -53 56 -74
67 -159 81 -306 -95 -246 -294 32 -107 101 -166 191 -166 63 0 106 20 169 80
29 27 57 50 62 50 5 -1 22 -11 38 -25 l30 -24 -70 -69 c-88 -88 -151 -114
-274 -116 -78 -1 -92 2 -153 32 -119 59 -187 174 -187 317 0 166 99 295 257
335 50 12 165 4 211 -16z"/>
<path d="M2578 2733 c-26 -4 -28 -8 -28 -49 0 -42 2 -44 28 -44 51 0 52 -7 52
-252 0 -214 -1 -228 -19 -238 -11 -5 -29 -10 -40 -10 -18 0 -21 -6 -21 -45 l0
-45 149 0 c82 0 156 3 165 6 11 4 16 19 16 50 0 42 -2 44 -28 44 -48 0 -52 13
-51 159 l0 136 100 -198 99 -198 93 3 92 3 6 290 c3 160 6 291 7 293 1 1 13 2
26 2 47 0 56 10 56 56 l0 44 -132 0 c-73 0 -150 -3 -170 -6 -37 -6 -38 -8 -38
-50 0 -40 2 -44 24 -44 52 0 56 -6 55 -94 l0 -81 -70 138 -69 137 -138 -1
c-75 -1 -149 -4 -164 -6z"/>
</g>
</svg>
