<?xml version="1.0" standalone="no"?>
<!DOCTYPE svg PUBLIC "-//W3C//DTD SVG 20010904//EN"
 "http://www.w3.org/TR/2001/REC-SVG-20010904/DTD/svg10.dtd">
<svg version="1.0" xmlns="http://www.w3.org/2000/svg"
 width="199.000000pt" height="199.000000pt" viewBox="0 0 199.000000 199.000000"
 preserveAspectRatio="xMidYMid meet">
<metadata>
Created by potrace 1.11, written by Peter Selinger 2001-2013
</metadata>
<g transform="translate(0.000000,199.000000) scale(0.100000,-0.100000)"
fill="#000000" stroke="none">
<path d="M0 1095 l0 -505 505 0 505 0 0 505 0 505 -505 0 -505 0 0 -505z m635
330 c46 -17 67 -19 45 -5 -11 7 1 10 41 10 l56 0 33 -120 c18 -67 31 -122 29
-124 -2 -2 -19 -8 -38 -15 -63 -21 -78 -15 -115 43 -83 130 -179 149 -264 52
-111 -126 -37 -383 118 -411 48 -9 101 16 164 75 66 62 91 68 134 32 l34 -28
-46 -51 c-66 -73 -126 -109 -213 -129 -193 -43 -358 28 -432 185 -23 49 -26
69 -26 156 0 81 4 109 21 146 43 92 132 165 231 188 59 14 184 12 228 -4z"/>
<path d="M1273 1433 c-8 -3 -13 -23 -13 -49 0 -42 2 -44 28 -44 15 0 33 -5 40
-12 18 -18 17 -467 0 -472 -7 -3 -25 -7 -40 -10 -26 -6 -28 -10 -28 -51 l0
-45 134 0 c74 0 141 3 150 6 11 4 16 19 16 50 0 43 -1 44 -34 44 -18 0 -39 6
-45 14 -8 9 -11 66 -9 182 l3 169 118 -232 117 -233 68 0 c37 0 73 4 79 8 10
6 13 80 15 292 l3 285 35 5 c34 5 35 7 38 53 l3 47 -128 0 c-170 0 -173 -1
-173 -56 0 -40 2 -44 24 -44 55 0 56 -3 55 -134 l0 -121 -90 178 -89 177 -133
-1 c-72 0 -138 -3 -144 -6z"/>
</g>
</svg>
